<?xml version="1.0" encoding="UTF-8" standalone="no"?>
<!-- Created with Inkscape (http://www.inkscape.org/) -->
<svg
   xmlns:svg="http://www.w3.org/2000/svg"
   xmlns="http://www.w3.org/2000/svg"
   version="1.0"
   width="896.69287"
   height="217.16534"
   id="svg2">
  <defs
     id="defs4" />
  <g
     transform="translate(2454.9579,1757.5383)"
     id="layer1">
    <g
       transform="matrix(5.7330391,0,0,5.7330391,11796.837,7518.9723)"
       id="g5872"
       style="fill:#000000">
      <path
         d="M -2424.6656,-1603.2813 L -2402.8114,-1581.5133 L -2402.8114,-1614.3555 L -2407.8284,-1614.3555 L -2407.8284,-1593.8793 L -2429.7292,-1615.148 L -2429.7292,-1582.2674 L -2424.7122,-1582.2674 L -2424.7122,-1603.0718 L -2424.6656,-1603.2813"
         id="path5098"
         style="fill:#000000;fill-opacity:1;fill-rule:nonzero;stroke:none" />
      <path
         d="M -2453.6182,-1582.2674 L -2453.6182,-1614.3555 L -2435.6626,-1614.3555 L -2435.6626,-1609.349 L -2448.6012,-1609.3456 L -2448.6012,-1601.8079 L -2438.5827,-1601.8114 L -2438.5827,-1596.805 L -2448.6012,-1596.805 L -2448.6012,-1587.2739 L -2448.6012,-1587.2739 L -2435.7403,-1587.2739 L -2435.7403,-1582.2674 L -2453.6182,-1582.2674"
         id="path5100"
         style="fill:#000000;fill-opacity:1;fill-rule:nonzero;stroke:none" />
      <path
         d="M -2352.455,-1603.3336 L -2330.4455,-1581.639 L -2330.4455,-1614.3555 L -2335.4625,-1614.3555 L -2335.4625,-1593.6314 L -2335.4935,-1593.7257 L -2357.5186,-1615.169 L -2357.5186,-1582.2674 L -2352.4395,-1582.2674 L -2352.4395,-1603.2079 L -2352.455,-1603.3336"
         id="path5102"
         style="fill:#000000;fill-opacity:1;fill-rule:nonzero;stroke:none" />
      <path
         d="M -2484.9581,-1614.3555 L -2484.9581,-1582.2674 L -2474.3075,-1582.2674 C -2474.3075,-1582.2674 -2459.2565,-1583.5208 -2459.2565,-1598.4354 C -2459.2565,-1613.8109 -2474.3385,-1614.3555 -2474.3385,-1614.3555 L -2484.9581,-1614.3555 z M -2479.9458,-1587.026 L -2479.9458,-1609.7156 L -2475.519,-1609.7156 C -2475.519,-1609.7156 -2464.2114,-1609.9251 -2464.2114,-1598.2469 C -2464.2114,-1587.5811 -2474.4783,-1587.0295 -2474.4783,-1587.0295 L -2479.9458,-1587.026"
         id="path5104"
         style="fill:#000000;fill-opacity:1;fill-rule:nonzero;stroke:none" />
      <path
         d="M -2392.3114,-1598.1421 C -2392.3114,-1604.8663 -2386.9061,-1610.3161 -2380.2582,-1610.3161 C -2373.5948,-1610.3161 -2367.9565,-1605.6623 -2367.9565,-1598.1421 C -2367.9565,-1591.4215 -2373.5948,-1585.9716 -2380.2582,-1585.9716 C -2386.9061,-1585.9716 -2392.3114,-1591.4215 -2392.3114,-1598.1421 z M -2380.2582,-1581.1397 C -2370.3951,-1581.0141 -2362.7531,-1589.6444 -2362.7531,-1597.5591 C -2362.7531,-1606.0812 -2368.8884,-1615.3959 -2380.0097,-1615.3959 C -2388.273,-1615.3959 -2397.4216,-1608.6717 -2397.4216,-1598.1421 C -2397.4216,-1590.231 -2391.3795,-1581.2829 -2380.2582,-1581.1397"
         id="path5106"
         style="fill:#000000;fill-opacity:1;fill-rule:nonzero;stroke:none" />
    </g>
  </g>
</svg>
