<?xml version="1.0" encoding="UTF-8" standalone="no"?>
<!-- Created with Inkscape (http://www.inkscape.org/) -->

<svg
   xmlns:dc="http://purl.org/dc/elements/1.1/"
   xmlns:cc="http://creativecommons.org/ns#"
   xmlns:rdf="http://www.w3.org/1999/02/22-rdf-syntax-ns#"
   xmlns:svg="http://www.w3.org/2000/svg"
   xmlns="http://www.w3.org/2000/svg"
   xmlns:sodipodi="http://sodipodi.sourceforge.net/DTD/sodipodi-0.dtd"
   xmlns:inkscape="http://www.inkscape.org/namespaces/inkscape"
   version="1.0"
   width="905.82678"
   height="905.82678"
   id="svg2"
   sodipodi:docname="icon.svg"
   inkscape:version="0.92.4 (5da689c313, 2019-01-14)">
  <metadata
     id="metadata3737">
    <rdf:RDF>
      <cc:Work
         rdf:about="">
        <dc:format>image/svg+xml</dc:format>
        <dc:type
           rdf:resource="http://purl.org/dc/dcmitype/StillImage" />
        <dc:title></dc:title>
      </cc:Work>
    </rdf:RDF>
  </metadata>
  <sodipodi:namedview
     pagecolor="#ffffff"
     bordercolor="#666666"
     borderopacity="1"
     objecttolerance="10"
     gridtolerance="10"
     guidetolerance="10"
     inkscape:pageopacity="0"
     inkscape:pageshadow="2"
     inkscape:window-width="2486"
     inkscape:window-height="1417"
     id="namedview3735"
     showgrid="false"
     units="px"
     inkscape:pagecheckerboard="false"
     showborder="true"
     inkscape:zoom="0.64988807"
     inkscape:cx="243.94237"
     inkscape:cy="199.31144"
     inkscape:window-x="1912"
     inkscape:window-y="-8"
     inkscape:window-maximized="1"
     inkscape:current-layer="svg2" />
  <defs
     id="defs4" />
  <g
     transform="translate(2459.525,2096.869)"
     id="layer1">
    <g
       transform="matrix(5.7330391,0,0,5.7330391,11796.837,7518.9723)"
       id="g5872"
       style="fill:#000000">
      <path
         d="m -2424.6656,-1603.2813 21.8542,21.768 v -32.8422 h -5.017 v 20.4762 l -21.9008,-21.2687 v 32.8806 h 5.017 v -20.8044 l 0.047,-0.2095"
         id="path5098"
         style="fill:#000000;fill-opacity:1;fill-rule:nonzero;stroke:none"
         inkscape:connector-curvature="0" />
      <path
         d="m -2453.6182,-1582.2674 v -32.0881 h 17.9556 v 5.0065 h -12.9386 v 7.5377 h 10.0185 v 5.0064 h -10.0185 v 9.5311 0 h 12.8609 v 5.0065 h -17.8779"
         id="path5100"
         style="fill:#000000;fill-opacity:1;fill-rule:nonzero;stroke:none"
         inkscape:connector-curvature="0" />
      <path
         d="m -2352.455,-1603.3336 22.0095,21.6946 v -32.7165 h -5.017 v 20.7241 l -0.031,-0.094 -22.0251,-21.4433 v 32.9016 h 5.0791 v -20.9405 l -0.015,-0.1257"
         id="path5102"
         style="fill:#000000;fill-opacity:1;fill-rule:nonzero;stroke:none"
         inkscape:connector-curvature="0" />
      <path
         d="m -2484.9581,-1614.3555 v 32.0881 h 10.6506 c 0,0 15.051,-1.2534 15.051,-16.168 0,-15.3755 -15.082,-15.9201 -15.082,-15.9201 z m 5.0123,27.3295 v -22.6896 h 4.4268 c 0,0 11.3076,-0.2095 11.3076,11.4687 0,10.6658 -10.2669,11.2174 -10.2669,11.2174 h -5.4675"
         id="path5104"
         style="fill:#000000;fill-opacity:1;fill-rule:nonzero;stroke:none"
         inkscape:connector-curvature="0" />
      <path
         d="m -2392.3114,-1598.1421 c 0,-6.7242 5.4053,-12.174 12.0532,-12.174 6.6634,0 12.3017,4.6538 12.3017,12.174 0,6.7206 -5.6383,12.1705 -12.3017,12.1705 -6.6479,0 -12.0532,-5.4499 -12.0532,-12.1705 z m 12.0532,17.0024 c 9.8631,0.1256 17.5051,-8.5047 17.5051,-16.4194 0,-8.5221 -6.1353,-17.8368 -17.2566,-17.8368 -8.2633,0 -17.4119,6.7242 -17.4119,17.2538 0,7.9111 6.0421,16.8592 17.1634,17.0024"
         id="path5106"
         style="fill:#000000;fill-opacity:1;fill-rule:nonzero;stroke:none"
         inkscape:connector-curvature="0" />
    </g>
  </g>
</svg>
